<svg width="47" height="47" viewBox="0 0 47 47" fill="none" xmlns="http://www.w3.org/2000/svg">
<path id="Union" fill-rule="evenodd" clip-rule="evenodd" d="M0 23.5C0 10.5213 10.5213 0 23.5 0C36.4787 0 47 10.5213 47 23.5C47 36.4787 36.4787 47 23.5 47C10.5213 47 0 36.4787 0 23.5ZM23.5 1C11.0736 1 1 11.0736 1 23.5C1 35.9264 11.0736 46 23.5 46C35.9264 46 46 35.9264 46 23.5C46 11.0736 35.9264 1 23.5 1ZM30.5848 24.4152L18 37L16.5858 35.5858L29.1182 23.0533L16.6391 11.4656L18 10L30.5334 21.6382L30.5858 21.5858L32 23L30.6391 24.4656L30.5848 24.4152Z" fill="white"/>
</svg>
